<svg width="224" height="58" viewBox="0 0 224 58" fill="none" xmlns="http://www.w3.org/2000/svg">
<g opacity="0.5">
<rect width="56" height="56" transform="matrix(-4.37114e-08 1 1 4.37114e-08 168 37)" fill="white"/>
<rect width="56" height="28" transform="matrix(-4.37114e-08 1 1 4.37114e-08 168 37)" fill="white"/>
<path d="M224 65C224 80.464 211.464 93 196 93L196 37C211.464 37 224 49.536 224 65Z" fill="white"/>
<rect x="224" y="-19" width="56" height="56" transform="rotate(90 224 -19)" fill="#FF9E66"/>
<rect width="56" height="56" transform="matrix(-4.37114e-08 1 1 4.37114e-08 112 37)" fill="white"/>
<rect x="168" y="-19" width="56" height="56" transform="rotate(90 168 -19)" fill="white"/>
<path d="M168 37C160.646 37 153.364 35.5515 146.57 32.7373C139.775 29.923 133.602 25.7981 128.402 20.598C123.202 15.3979 119.077 9.22451 116.263 2.43028C113.448 -4.36395 112 -11.646 112 -19L168 -19L168 37Z" fill="#FF9E66"/>
<rect width="56" height="56" transform="matrix(-4.37114e-08 1 1 4.37114e-08 56 37)" fill="white"/>
<rect width="56" height="28" transform="matrix(-4.37114e-08 1 1 4.37114e-08 56 37)" fill="#FFBE99"/>
<path d="M112 65C112 80.464 99.464 93 84 93L84 37C99.464 37 112 49.536 112 65Z" fill="#FFBE99"/>
<rect x="112" y="-19" width="56" height="56" transform="rotate(90 112 -19)" fill="white"/>
<path d="M56 37C63.354 37 70.636 35.5515 77.4303 32.7373C84.2245 29.923 90.3979 25.7981 95.598 20.598C100.798 15.3979 104.923 9.22452 107.737 2.43028C110.552 -4.36395 112 -11.646 112 -19L56 -19L56 37Z" fill="#FF9E66"/>
<rect width="56" height="56" transform="matrix(-4.37114e-08 1 1 4.37114e-08 0 37)" fill="url(#paint0_linear_1_62)"/>
<rect x="56" y="-19" width="56" height="56" transform="rotate(90 56 -19)" fill="url(#paint1_linear_1_62)"/>
</g>
<defs>
<linearGradient id="paint0_linear_1_62" x1="28" y1="0" x2="28" y2="56" gradientUnits="userSpaceOnUse">
<stop stop-color="#FFBE99" stop-opacity="0"/>
<stop offset="1" stop-color="#FFBE99"/>
</linearGradient>
<linearGradient id="paint1_linear_1_62" x1="84" y1="-19" x2="84" y2="37" gradientUnits="userSpaceOnUse">
<stop stop-color="#FF9E66"/>
<stop offset="1" stop-color="#FF9E66" stop-opacity="0"/>
</linearGradient>
</defs>
</svg>
