<svg width="477" height="518" viewBox="0 0 477 518" fill="none" xmlns="http://www.w3.org/2000/svg">
<g opacity="0.9">
<g filter="url(#filter0_d_1_809)">
<path d="M142.595 384.257C155.86 383.35 165.879 371.862 164.972 358.597C164.066 345.332 152.577 335.313 139.312 336.22C126.047 337.127 116.028 348.615 116.935 361.88C117.842 375.145 129.33 385.164 142.595 384.257Z" fill="#FFF5F0" fill-opacity="0.5" shape-rendering="crispEdges"/>
<path d="M139.243 335.222C153.059 334.278 165.026 344.712 165.97 358.528C166.914 372.344 156.479 384.311 142.663 385.255C128.847 386.199 116.882 375.764 115.937 361.948C114.993 348.132 125.428 336.167 139.243 335.222Z" stroke="#262626" stroke-width="2" shape-rendering="crispEdges"/>
</g>
<g filter="url(#filter1_d_1_809)">
<path d="M211.595 426.843C224.407 426.843 234.794 416.456 234.794 403.644C234.794 390.832 224.407 380.445 211.595 380.445C198.783 380.445 188.396 390.832 188.396 403.644C188.396 416.456 198.783 426.843 211.595 426.843Z" fill="#FFF5F0" fill-opacity="0.5" shape-rendering="crispEdges"/>
<path d="M211.595 379.445C224.959 379.445 235.794 390.279 235.794 403.644C235.794 417.008 224.959 427.843 211.595 427.843C198.23 427.843 187.396 417.008 187.396 403.644C187.397 390.279 198.23 379.446 211.595 379.445Z" stroke="#262626" stroke-width="2" shape-rendering="crispEdges"/>
</g>
<g filter="url(#filter2_d_1_809)">
<path d="M269.102 410.407C269.102 398.072 279.089 388.085 291.424 388.085C303.759 388.085 313.747 398.072 313.747 410.407C313.747 422.742 303.759 432.73 291.424 432.73C279.089 432.73 269.102 422.742 269.102 410.407Z" fill="#FFF5F0" fill-opacity="0.5" shape-rendering="crispEdges"/>
<path d="M291.424 387.085C304.311 387.085 314.746 397.52 314.746 410.407C314.746 423.294 304.311 433.729 291.424 433.729C278.536 433.729 268.102 423.294 268.102 410.407C268.102 397.52 278.537 387.085 291.424 387.085Z" stroke="#262626" stroke-width="2" shape-rendering="crispEdges"/>
</g>
<g filter="url(#filter3_d_1_809)">
<path d="M345.601 380.655C345.601 368.811 355.202 359.174 367.082 359.174C378.961 359.174 388.563 368.776 388.563 380.655C388.563 392.535 378.961 402.137 367.082 402.137C355.202 402.137 345.601 392.535 345.601 380.655Z" fill="#FFF5F0" fill-opacity="0.5" shape-rendering="crispEdges"/>
<path d="M367.082 358.174C379.514 358.174 389.563 368.224 389.563 380.655C389.563 393.087 379.514 403.137 367.082 403.137C354.65 403.137 344.601 393.087 344.601 380.655C344.601 368.26 354.649 358.174 367.082 358.174Z" stroke="#262626" stroke-width="2" shape-rendering="crispEdges"/>
</g>
<g filter="url(#filter4_d_1_809)">
<path d="M402.896 318.033C402.896 306.644 412.113 297.428 423.502 297.428C434.891 297.428 444.107 306.644 444.107 318.033C444.107 329.422 434.891 338.639 423.502 338.639C412.113 338.639 402.896 329.422 402.896 318.033Z" fill="#FFF5F0" fill-opacity="0.5" shape-rendering="crispEdges"/>
<path d="M423.502 296.428C435.443 296.428 445.107 306.092 445.107 318.033C445.107 329.975 435.443 339.639 423.502 339.639C411.56 339.639 401.896 329.975 401.896 318.033C401.896 306.092 411.56 296.428 423.502 296.428Z" stroke="#262626" stroke-width="2" shape-rendering="crispEdges"/>
</g>
<g filter="url(#filter5_d_1_809)">
<path d="M428.163 240.833C428.163 229.935 436.993 221.104 447.892 221.104C458.79 221.104 467.621 229.935 467.621 240.833C467.621 251.732 458.79 260.563 447.892 260.563C436.993 260.563 428.163 251.732 428.163 240.833Z" fill="#FFF5F0" fill-opacity="0.5" shape-rendering="crispEdges"/>
<path d="M447.892 220.104C459.343 220.104 468.621 229.383 468.621 240.834C468.621 252.284 459.343 261.563 447.892 261.563C436.441 261.563 427.163 252.284 427.163 240.834C427.163 229.383 436.441 220.104 447.892 220.104Z" stroke="#262626" stroke-width="2" shape-rendering="crispEdges"/>
</g>
<g filter="url(#filter6_d_1_809)">
<path d="M420.523 161.005C420.523 150.562 428.969 142.117 439.412 142.117C449.855 142.117 458.3 150.562 458.3 161.005C458.3 171.448 449.855 179.893 439.412 179.893C428.969 179.893 420.523 171.448 420.523 161.005Z" fill="#FFF5F0" fill-opacity="0.5" shape-rendering="crispEdges"/>
<path d="M439.412 141.117C450.407 141.117 459.3 150.011 459.3 161.006C459.3 172 450.407 180.893 439.412 180.893C428.417 180.893 419.524 172.001 419.523 161.006C419.523 150.01 428.417 141.117 439.412 141.117Z" stroke="#262626" stroke-width="2" shape-rendering="crispEdges"/>
</g>
<g filter="url(#filter7_d_1_809)">
<path d="M379.978 89.4468C379.978 79.4946 388.038 71.4347 397.99 71.4347C407.942 71.4347 416.002 79.4946 416.002 89.4468C416.002 99.3991 407.942 107.459 397.99 107.459C388.038 107.459 379.978 99.3991 379.978 89.4468Z" fill="#FFF5F0" fill-opacity="0.5" shape-rendering="crispEdges"/>
<path d="M397.99 70.4347C408.494 70.4347 417.002 78.942 417.002 89.4464C417.002 99.9509 408.494 108.459 397.99 108.459C387.485 108.459 378.978 99.9508 378.978 89.4464C378.978 78.9422 387.485 70.4348 397.99 70.4347Z" stroke="#262626" stroke-width="2" shape-rendering="crispEdges"/>
</g>
<g filter="url(#filter8_d_1_809)">
<path d="M313.291 39.4752C313.291 30.0136 320.965 22.3391 330.427 22.3391C339.888 22.3391 347.563 30.0136 347.563 39.4752C347.563 48.9369 339.888 56.6113 330.427 56.6113C320.965 56.6113 313.291 48.9369 313.291 39.4752Z" fill="#FFF5F0" fill-opacity="0.5" shape-rendering="crispEdges"/>
<path d="M330.426 21.3391C340.44 21.3391 348.563 29.4611 348.563 39.4749C348.563 49.4888 340.44 57.6116 330.426 57.6116C320.413 57.6113 312.291 49.4887 312.291 39.4749C312.291 29.4612 320.413 21.3393 330.426 21.3391Z" stroke="#262626" stroke-width="2" shape-rendering="crispEdges"/>
</g>
<g filter="url(#filter9_d_1_809)">
<path d="M235.985 19.0451C235.985 10.039 243.274 2.75006 252.28 2.75006C261.286 2.75006 268.575 10.039 268.575 19.0451C268.575 28.0512 261.286 35.3402 252.28 35.3402C243.274 35.3402 235.985 28.0512 235.985 19.0451Z" fill="#FFF5F0" fill-opacity="0.5" shape-rendering="crispEdges"/>
<path d="M252.28 1.75006C261.838 1.75006 269.575 9.48668 269.575 19.045C269.575 28.6034 261.838 36.3399 252.28 36.3399C242.722 36.3398 234.985 28.6033 234.985 19.045C234.985 9.48675 242.722 1.75019 252.28 1.75006Z" stroke="#262626" stroke-width="2" shape-rendering="crispEdges"/>
</g>
<g filter="url(#filter10_d_1_809)">
<path d="M156.998 28.2264C156.998 19.7109 163.901 12.8074 172.417 12.8074C180.932 12.8074 187.836 19.7109 187.836 28.2264C187.836 36.7419 180.932 43.6454 172.417 43.6454C163.901 43.6454 156.998 36.7419 156.998 28.2264Z" fill="#FFF5F0" fill-opacity="0.5" shape-rendering="crispEdges"/>
<path d="M172.417 11.8074C181.485 11.8075 188.836 19.1586 188.836 28.2264C188.836 37.2941 181.485 44.6453 172.417 44.6453C163.349 44.6453 155.998 37.2941 155.998 28.2264C155.998 19.1586 163.349 11.8074 172.417 11.8074Z" stroke="#262626" stroke-width="2" shape-rendering="crispEdges"/>
</g>
<g filter="url(#filter11_d_1_809)">
<path d="M85.1956 67.0539C85.1956 58.994 91.7135 52.476 99.7734 52.476C107.833 52.476 114.351 58.994 114.351 67.0539C114.351 75.1138 107.833 81.6319 99.7734 81.6319C91.7135 81.6319 85.1956 75.1138 85.1956 67.0539Z" fill="#FFF5F0" fill-opacity="0.5" shape-rendering="crispEdges"/>
<path d="M99.7737 51.476C108.386 51.4761 115.351 58.442 115.351 67.0541C115.351 75.6661 108.386 82.6321 99.7737 82.6322C91.1615 82.6322 84.1956 75.6662 84.1956 67.0541C84.1956 58.4419 91.1615 51.476 99.7737 51.476Z" stroke="#262626" stroke-width="2" shape-rendering="crispEdges"/>
</g>
<g filter="url(#filter12_d_1_809)">
<path d="M31.0525 131.534C31.0525 123.964 37.185 117.832 44.7543 117.832C52.3236 117.832 58.4563 123.964 58.4563 131.534C58.4563 139.103 52.3236 145.236 44.7543 145.236C37.185 145.236 31.0525 139.103 31.0525 131.534Z" fill="#FFF5F0" fill-opacity="0.5" shape-rendering="crispEdges"/>
<path d="M44.7546 116.832C52.8761 116.832 59.4558 123.412 59.4558 131.534C59.4557 139.655 52.876 146.235 44.7546 146.235C36.6331 146.235 30.0526 139.655 30.0525 131.534C30.0525 123.412 36.633 116.832 44.7546 116.832Z" stroke="#262626" stroke-width="2" shape-rendering="crispEdges"/>
</g>
<g filter="url(#filter13_d_1_809)">
<path d="M3.29932 207.753C3.29932 200.674 9.04652 194.927 16.1252 194.927C23.204 194.927 28.9509 200.674 28.9509 207.753C28.9509 214.831 23.204 220.578 16.1252 220.578C9.04652 220.578 3.29932 214.831 3.29932 207.753Z" fill="#FFF5F0" fill-opacity="0.5" shape-rendering="crispEdges"/>
<path d="M16.1255 193.927C23.7564 193.927 29.9507 200.122 29.9507 207.753C29.9505 215.384 23.7563 221.578 16.1255 221.578C8.49462 221.578 2.29952 215.384 2.29932 207.753C2.29932 200.122 8.4945 193.927 16.1255 193.927Z" stroke="#262626" stroke-width="2" shape-rendering="crispEdges"/>
</g>
<g filter="url(#filter14_d_1_809)">
<path d="M2.2124 288.071C2.2124 281.448 7.57416 276.087 14.1973 276.087C20.8205 276.087 26.182 281.448 26.182 288.071C26.182 294.695 20.8205 300.056 14.1973 300.056C7.57416 300.056 2.2124 294.695 2.2124 288.071Z" fill="#FFF5F0" fill-opacity="0.5" shape-rendering="crispEdges"/>
<path d="M14.1978 275.087C21.3729 275.087 27.1819 280.896 27.1821 288.071C27.1821 295.246 21.373 301.056 14.1978 301.056C7.02233 301.056 1.2124 295.247 1.2124 288.071C1.21261 280.896 7.02246 275.087 14.1978 275.087Z" stroke="#262626" stroke-width="2" shape-rendering="crispEdges"/>
</g>
<g filter="url(#filter15_d_1_809)">
<path d="M27.8291 365.342C27.8291 359.209 32.8054 354.233 38.9379 354.233C45.0705 354.233 50.0466 359.209 50.0466 365.342C50.0466 371.475 45.0705 376.451 38.9379 376.451C32.8054 376.451 27.8291 371.475 27.8291 365.342Z" fill="#FFF5F0" fill-opacity="0.5" shape-rendering="crispEdges"/>
<path d="M38.9375 353.233C45.6223 353.233 51.0467 358.657 51.0469 365.342C51.0469 372.027 45.6223 377.451 38.9375 377.451C32.2529 377.451 26.8291 372.026 26.8291 365.342C26.8293 358.657 32.253 353.234 38.9375 353.233Z" stroke="#262626" stroke-width="2" shape-rendering="crispEdges"/>
</g>
<g filter="url(#filter16_d_1_809)">
<path d="M80.0081 432.274C80.0081 426.632 84.5987 422.042 90.2406 422.042C95.8826 422.042 100.473 426.632 100.473 432.274C100.473 437.916 95.8826 442.507 90.2406 442.507C84.5987 442.507 80.0081 437.916 80.0081 432.274Z" fill="#FFF5F0" fill-opacity="0.5" shape-rendering="crispEdges"/>
<path d="M90.2405 421.042C96.4346 421.042 101.473 426.08 101.473 432.274C101.473 438.468 96.4347 443.506 90.2405 443.506C84.0463 443.506 79.0081 438.468 79.0081 432.274C79.0082 426.08 84.0464 421.042 90.2405 421.042Z" stroke="#262626" stroke-width="2" shape-rendering="crispEdges"/>
</g>
<g filter="url(#filter17_d_1_809)">
<path d="M150.305 478.917C150.305 473.73 154.51 469.525 159.696 469.525C164.883 469.525 169.088 473.73 169.088 478.917C169.088 484.103 164.883 488.308 159.696 488.308C154.51 488.308 150.305 484.103 150.305 478.917Z" fill="#FFF5F0" fill-opacity="0.5" shape-rendering="crispEdges"/>
<path d="M159.696 468.525C165.435 468.525 170.088 473.178 170.088 478.917C170.088 484.655 165.435 489.308 159.696 489.308C153.958 489.308 149.305 484.655 149.305 478.917C149.305 473.178 153.958 468.525 159.696 468.525Z" stroke="#262626" stroke-width="2" shape-rendering="crispEdges"/>
</g>
<g filter="url(#filter18_d_1_809)">
<path d="M229.012 501.485C229.012 496.789 232.831 492.969 237.527 492.969C242.223 492.969 246.043 496.789 246.043 501.485C246.043 506.18 242.223 510 237.527 510C232.831 510 229.012 506.18 229.012 501.485Z" fill="#FFF5F0" fill-opacity="0.5" shape-rendering="crispEdges"/>
<path d="M237.527 491.969C242.775 491.969 247.043 496.237 247.043 501.485C247.043 506.733 242.775 511 237.527 511C232.279 511 228.012 506.733 228.012 501.485C228.012 496.237 232.279 491.969 237.527 491.969Z" stroke="#262626" stroke-width="2" shape-rendering="crispEdges"/>
</g>
<g filter="url(#filter19_d_1_809)">
<path d="M317.917 507.687C322.136 507.687 325.556 504.267 325.556 500.048C325.556 495.829 322.136 492.408 317.917 492.408C313.698 492.408 310.277 495.829 310.277 500.048C310.277 504.267 313.698 507.687 317.917 507.687Z" fill="#FFF5F0" fill-opacity="0.5" shape-rendering="crispEdges"/>
<path d="M317.917 491.408C322.688 491.408 326.556 495.277 326.556 500.048C326.556 504.819 322.688 508.687 317.917 508.688C313.146 508.688 309.277 504.819 309.277 500.048C309.277 495.277 313.146 491.408 317.917 491.408Z" stroke="#262626" stroke-width="2" shape-rendering="crispEdges"/>
</g>
<g filter="url(#filter20_d_1_809)">
<path d="M388.249 474.536C388.249 470.786 391.297 467.738 395.047 467.738C398.797 467.738 401.845 470.786 401.845 474.536C401.845 478.286 398.797 481.334 395.047 481.334C391.297 481.334 388.249 478.286 388.249 474.536Z" fill="#FFF5F0" fill-opacity="0.5" shape-rendering="crispEdges"/>
<path d="M395.047 466.738C399.349 466.738 402.845 470.235 402.845 474.536C402.845 478.838 399.349 482.334 395.047 482.334C390.746 482.334 387.249 478.838 387.249 474.536C387.249 470.235 390.745 466.738 395.047 466.738Z" stroke="#262626" stroke-width="2" shape-rendering="crispEdges"/>
</g>
<g filter="url(#filter21_d_1_809)">
<path d="M457.144 425.02C457.144 421.761 459.807 419.098 463.066 419.098C466.325 419.098 468.988 421.761 468.988 425.02C468.988 428.279 466.325 430.943 463.066 430.943C459.807 430.943 457.144 428.279 457.144 425.02Z" fill="#FFF5F0" fill-opacity="0.5" shape-rendering="crispEdges"/>
<path d="M463.065 418.098C466.877 418.098 469.988 421.209 469.988 425.02C469.988 428.831 466.877 431.943 463.065 431.943C459.254 431.943 456.144 428.831 456.144 425.02C456.144 421.209 459.254 418.098 463.065 418.098Z" stroke="#262626" stroke-width="2" shape-rendering="crispEdges"/>
</g>
</g>
<defs>
<filter id="filter0_d_1_809" x="114.878" y="334.163" width="58.1514" height="58.1514" filterUnits="userSpaceOnUse" color-interpolation-filters="sRGB">
<feFlood flood-opacity="0" result="BackgroundImageFix"/>
<feColorMatrix in="SourceAlpha" type="matrix" values="0 0 0 0 0 0 0 0 0 0 0 0 0 0 0 0 0 0 127 0" result="hardAlpha"/>
<feOffset dx="6" dy="6"/>
<feComposite in2="hardAlpha" operator="out"/>
<feColorMatrix type="matrix" values="0 0 0 0 0.0980392 0 0 0 0 0.0980392 0 0 0 0 0.0980392 0 0 0 1 0"/>
<feBlend mode="normal" in2="BackgroundImageFix" result="effect1_dropShadow_1_809"/>
<feBlend mode="normal" in="SourceGraphic" in2="effect1_dropShadow_1_809" result="shape"/>
</filter>
<filter id="filter1_d_1_809" x="186.396" y="378.445" width="56.3972" height="56.3972" filterUnits="userSpaceOnUse" color-interpolation-filters="sRGB">
<feFlood flood-opacity="0" result="BackgroundImageFix"/>
<feColorMatrix in="SourceAlpha" type="matrix" values="0 0 0 0 0 0 0 0 0 0 0 0 0 0 0 0 0 0 127 0" result="hardAlpha"/>
<feOffset dx="6" dy="6"/>
<feComposite in2="hardAlpha" operator="out"/>
<feColorMatrix type="matrix" values="0 0 0 0 0.0980392 0 0 0 0 0.0980392 0 0 0 0 0.0980392 0 0 0 1 0"/>
<feBlend mode="normal" in2="BackgroundImageFix" result="effect1_dropShadow_1_809"/>
<feBlend mode="normal" in="SourceGraphic" in2="effect1_dropShadow_1_809" result="shape"/>
</filter>
<filter id="filter2_d_1_809" x="267.102" y="386.085" width="54.645" height="54.645" filterUnits="userSpaceOnUse" color-interpolation-filters="sRGB">
<feFlood flood-opacity="0" result="BackgroundImageFix"/>
<feColorMatrix in="SourceAlpha" type="matrix" values="0 0 0 0 0 0 0 0 0 0 0 0 0 0 0 0 0 0 127 0" result="hardAlpha"/>
<feOffset dx="6" dy="6"/>
<feComposite in2="hardAlpha" operator="out"/>
<feColorMatrix type="matrix" values="0 0 0 0 0.0980392 0 0 0 0 0.0980392 0 0 0 0 0.0980392 0 0 0 1 0"/>
<feBlend mode="normal" in2="BackgroundImageFix" result="effect1_dropShadow_1_809"/>
<feBlend mode="normal" in="SourceGraphic" in2="effect1_dropShadow_1_809" result="shape"/>
</filter>
<filter id="filter3_d_1_809" x="343.601" y="357.174" width="52.9626" height="52.963" filterUnits="userSpaceOnUse" color-interpolation-filters="sRGB">
<feFlood flood-opacity="0" result="BackgroundImageFix"/>
<feColorMatrix in="SourceAlpha" type="matrix" values="0 0 0 0 0 0 0 0 0 0 0 0 0 0 0 0 0 0 127 0" result="hardAlpha"/>
<feOffset dx="6" dy="6"/>
<feComposite in2="hardAlpha" operator="out"/>
<feColorMatrix type="matrix" values="0 0 0 0 0.0980392 0 0 0 0 0.0980392 0 0 0 0 0.0980392 0 0 0 1 0"/>
<feBlend mode="normal" in2="BackgroundImageFix" result="effect1_dropShadow_1_809"/>
<feBlend mode="normal" in="SourceGraphic" in2="effect1_dropShadow_1_809" result="shape"/>
</filter>
<filter id="filter4_d_1_809" x="400.896" y="295.428" width="51.2107" height="51.2108" filterUnits="userSpaceOnUse" color-interpolation-filters="sRGB">
<feFlood flood-opacity="0" result="BackgroundImageFix"/>
<feColorMatrix in="SourceAlpha" type="matrix" values="0 0 0 0 0 0 0 0 0 0 0 0 0 0 0 0 0 0 127 0" result="hardAlpha"/>
<feOffset dx="6" dy="6"/>
<feComposite in2="hardAlpha" operator="out"/>
<feColorMatrix type="matrix" values="0 0 0 0 0.0980392 0 0 0 0 0.0980392 0 0 0 0 0.0980392 0 0 0 1 0"/>
<feBlend mode="normal" in2="BackgroundImageFix" result="effect1_dropShadow_1_809"/>
<feBlend mode="normal" in="SourceGraphic" in2="effect1_dropShadow_1_809" result="shape"/>
</filter>
<filter id="filter5_d_1_809" x="426.163" y="219.104" width="49.4585" height="49.4586" filterUnits="userSpaceOnUse" color-interpolation-filters="sRGB">
<feFlood flood-opacity="0" result="BackgroundImageFix"/>
<feColorMatrix in="SourceAlpha" type="matrix" values="0 0 0 0 0 0 0 0 0 0 0 0 0 0 0 0 0 0 127 0" result="hardAlpha"/>
<feOffset dx="6" dy="6"/>
<feComposite in2="hardAlpha" operator="out"/>
<feColorMatrix type="matrix" values="0 0 0 0 0.0980392 0 0 0 0 0.0980392 0 0 0 0 0.0980392 0 0 0 1 0"/>
<feBlend mode="normal" in2="BackgroundImageFix" result="effect1_dropShadow_1_809"/>
<feBlend mode="normal" in="SourceGraphic" in2="effect1_dropShadow_1_809" result="shape"/>
</filter>
<filter id="filter6_d_1_809" x="418.523" y="140.117" width="47.7766" height="47.7766" filterUnits="userSpaceOnUse" color-interpolation-filters="sRGB">
<feFlood flood-opacity="0" result="BackgroundImageFix"/>
<feColorMatrix in="SourceAlpha" type="matrix" values="0 0 0 0 0 0 0 0 0 0 0 0 0 0 0 0 0 0 127 0" result="hardAlpha"/>
<feOffset dx="6" dy="6"/>
<feComposite in2="hardAlpha" operator="out"/>
<feColorMatrix type="matrix" values="0 0 0 0 0.0980392 0 0 0 0 0.0980392 0 0 0 0 0.0980392 0 0 0 1 0"/>
<feBlend mode="normal" in2="BackgroundImageFix" result="effect1_dropShadow_1_809"/>
<feBlend mode="normal" in="SourceGraphic" in2="effect1_dropShadow_1_809" result="shape"/>
</filter>
<filter id="filter7_d_1_809" x="377.978" y="69.4347" width="46.0242" height="46.0244" filterUnits="userSpaceOnUse" color-interpolation-filters="sRGB">
<feFlood flood-opacity="0" result="BackgroundImageFix"/>
<feColorMatrix in="SourceAlpha" type="matrix" values="0 0 0 0 0 0 0 0 0 0 0 0 0 0 0 0 0 0 127 0" result="hardAlpha"/>
<feOffset dx="6" dy="6"/>
<feComposite in2="hardAlpha" operator="out"/>
<feColorMatrix type="matrix" values="0 0 0 0 0.0980392 0 0 0 0 0.0980392 0 0 0 0 0.0980392 0 0 0 1 0"/>
<feBlend mode="normal" in2="BackgroundImageFix" result="effect1_dropShadow_1_809"/>
<feBlend mode="normal" in="SourceGraphic" in2="effect1_dropShadow_1_809" result="shape"/>
</filter>
<filter id="filter8_d_1_809" x="311.291" y="20.3391" width="44.2722" height="44.2722" filterUnits="userSpaceOnUse" color-interpolation-filters="sRGB">
<feFlood flood-opacity="0" result="BackgroundImageFix"/>
<feColorMatrix in="SourceAlpha" type="matrix" values="0 0 0 0 0 0 0 0 0 0 0 0 0 0 0 0 0 0 127 0" result="hardAlpha"/>
<feOffset dx="6" dy="6"/>
<feComposite in2="hardAlpha" operator="out"/>
<feColorMatrix type="matrix" values="0 0 0 0 0.0980392 0 0 0 0 0.0980392 0 0 0 0 0.0980392 0 0 0 1 0"/>
<feBlend mode="normal" in2="BackgroundImageFix" result="effect1_dropShadow_1_809"/>
<feBlend mode="normal" in="SourceGraphic" in2="effect1_dropShadow_1_809" result="shape"/>
</filter>
<filter id="filter9_d_1_809" x="233.985" y="0.750061" width="42.5901" height="42.5901" filterUnits="userSpaceOnUse" color-interpolation-filters="sRGB">
<feFlood flood-opacity="0" result="BackgroundImageFix"/>
<feColorMatrix in="SourceAlpha" type="matrix" values="0 0 0 0 0 0 0 0 0 0 0 0 0 0 0 0 0 0 127 0" result="hardAlpha"/>
<feOffset dx="6" dy="6"/>
<feComposite in2="hardAlpha" operator="out"/>
<feColorMatrix type="matrix" values="0 0 0 0 0.0980392 0 0 0 0 0.0980392 0 0 0 0 0.0980392 0 0 0 1 0"/>
<feBlend mode="normal" in2="BackgroundImageFix" result="effect1_dropShadow_1_809"/>
<feBlend mode="normal" in="SourceGraphic" in2="effect1_dropShadow_1_809" result="shape"/>
</filter>
<filter id="filter10_d_1_809" x="154.998" y="10.8074" width="40.8379" height="40.838" filterUnits="userSpaceOnUse" color-interpolation-filters="sRGB">
<feFlood flood-opacity="0" result="BackgroundImageFix"/>
<feColorMatrix in="SourceAlpha" type="matrix" values="0 0 0 0 0 0 0 0 0 0 0 0 0 0 0 0 0 0 127 0" result="hardAlpha"/>
<feOffset dx="6" dy="6"/>
<feComposite in2="hardAlpha" operator="out"/>
<feColorMatrix type="matrix" values="0 0 0 0 0.0980392 0 0 0 0 0.0980392 0 0 0 0 0.0980392 0 0 0 1 0"/>
<feBlend mode="normal" in2="BackgroundImageFix" result="effect1_dropShadow_1_809"/>
<feBlend mode="normal" in="SourceGraphic" in2="effect1_dropShadow_1_809" result="shape"/>
</filter>
<filter id="filter11_d_1_809" x="83.1956" y="50.476" width="39.1558" height="39.1559" filterUnits="userSpaceOnUse" color-interpolation-filters="sRGB">
<feFlood flood-opacity="0" result="BackgroundImageFix"/>
<feColorMatrix in="SourceAlpha" type="matrix" values="0 0 0 0 0 0 0 0 0 0 0 0 0 0 0 0 0 0 127 0" result="hardAlpha"/>
<feOffset dx="6" dy="6"/>
<feComposite in2="hardAlpha" operator="out"/>
<feColorMatrix type="matrix" values="0 0 0 0 0.0980392 0 0 0 0 0.0980392 0 0 0 0 0.0980392 0 0 0 1 0"/>
<feBlend mode="normal" in2="BackgroundImageFix" result="effect1_dropShadow_1_809"/>
<feBlend mode="normal" in="SourceGraphic" in2="effect1_dropShadow_1_809" result="shape"/>
</filter>
<filter id="filter12_d_1_809" x="29.0525" y="115.832" width="37.4038" height="37.4037" filterUnits="userSpaceOnUse" color-interpolation-filters="sRGB">
<feFlood flood-opacity="0" result="BackgroundImageFix"/>
<feColorMatrix in="SourceAlpha" type="matrix" values="0 0 0 0 0 0 0 0 0 0 0 0 0 0 0 0 0 0 127 0" result="hardAlpha"/>
<feOffset dx="6" dy="6"/>
<feComposite in2="hardAlpha" operator="out"/>
<feColorMatrix type="matrix" values="0 0 0 0 0.0980392 0 0 0 0 0.0980392 0 0 0 0 0.0980392 0 0 0 1 0"/>
<feBlend mode="normal" in2="BackgroundImageFix" result="effect1_dropShadow_1_809"/>
<feBlend mode="normal" in="SourceGraphic" in2="effect1_dropShadow_1_809" result="shape"/>
</filter>
<filter id="filter13_d_1_809" x="1.29932" y="192.927" width="35.6516" height="35.6516" filterUnits="userSpaceOnUse" color-interpolation-filters="sRGB">
<feFlood flood-opacity="0" result="BackgroundImageFix"/>
<feColorMatrix in="SourceAlpha" type="matrix" values="0 0 0 0 0 0 0 0 0 0 0 0 0 0 0 0 0 0 127 0" result="hardAlpha"/>
<feOffset dx="6" dy="6"/>
<feComposite in2="hardAlpha" operator="out"/>
<feColorMatrix type="matrix" values="0 0 0 0 0.0980392 0 0 0 0 0.0980392 0 0 0 0 0.0980392 0 0 0 1 0"/>
<feBlend mode="normal" in2="BackgroundImageFix" result="effect1_dropShadow_1_809"/>
<feBlend mode="normal" in="SourceGraphic" in2="effect1_dropShadow_1_809" result="shape"/>
</filter>
<filter id="filter14_d_1_809" x="0.212402" y="274.087" width="33.9697" height="33.9695" filterUnits="userSpaceOnUse" color-interpolation-filters="sRGB">
<feFlood flood-opacity="0" result="BackgroundImageFix"/>
<feColorMatrix in="SourceAlpha" type="matrix" values="0 0 0 0 0 0 0 0 0 0 0 0 0 0 0 0 0 0 127 0" result="hardAlpha"/>
<feOffset dx="6" dy="6"/>
<feComposite in2="hardAlpha" operator="out"/>
<feColorMatrix type="matrix" values="0 0 0 0 0.0980392 0 0 0 0 0.0980392 0 0 0 0 0.0980392 0 0 0 1 0"/>
<feBlend mode="normal" in2="BackgroundImageFix" result="effect1_dropShadow_1_809"/>
<feBlend mode="normal" in="SourceGraphic" in2="effect1_dropShadow_1_809" result="shape"/>
</filter>
<filter id="filter15_d_1_809" x="25.8291" y="352.233" width="32.2175" height="32.2173" filterUnits="userSpaceOnUse" color-interpolation-filters="sRGB">
<feFlood flood-opacity="0" result="BackgroundImageFix"/>
<feColorMatrix in="SourceAlpha" type="matrix" values="0 0 0 0 0 0 0 0 0 0 0 0 0 0 0 0 0 0 127 0" result="hardAlpha"/>
<feOffset dx="6" dy="6"/>
<feComposite in2="hardAlpha" operator="out"/>
<feColorMatrix type="matrix" values="0 0 0 0 0.0980392 0 0 0 0 0.0980392 0 0 0 0 0.0980392 0 0 0 1 0"/>
<feBlend mode="normal" in2="BackgroundImageFix" result="effect1_dropShadow_1_809"/>
<feBlend mode="normal" in="SourceGraphic" in2="effect1_dropShadow_1_809" result="shape"/>
</filter>
<filter id="filter16_d_1_809" x="78.0081" y="420.042" width="30.4653" height="30.4652" filterUnits="userSpaceOnUse" color-interpolation-filters="sRGB">
<feFlood flood-opacity="0" result="BackgroundImageFix"/>
<feColorMatrix in="SourceAlpha" type="matrix" values="0 0 0 0 0 0 0 0 0 0 0 0 0 0 0 0 0 0 127 0" result="hardAlpha"/>
<feOffset dx="6" dy="6"/>
<feComposite in2="hardAlpha" operator="out"/>
<feColorMatrix type="matrix" values="0 0 0 0 0.0980392 0 0 0 0 0.0980392 0 0 0 0 0.0980392 0 0 0 1 0"/>
<feBlend mode="normal" in2="BackgroundImageFix" result="effect1_dropShadow_1_809"/>
<feBlend mode="normal" in="SourceGraphic" in2="effect1_dropShadow_1_809" result="shape"/>
</filter>
<filter id="filter17_d_1_809" x="148.305" y="467.525" width="28.7832" height="28.7831" filterUnits="userSpaceOnUse" color-interpolation-filters="sRGB">
<feFlood flood-opacity="0" result="BackgroundImageFix"/>
<feColorMatrix in="SourceAlpha" type="matrix" values="0 0 0 0 0 0 0 0 0 0 0 0 0 0 0 0 0 0 127 0" result="hardAlpha"/>
<feOffset dx="6" dy="6"/>
<feComposite in2="hardAlpha" operator="out"/>
<feColorMatrix type="matrix" values="0 0 0 0 0.0980392 0 0 0 0 0.0980392 0 0 0 0 0.0980392 0 0 0 1 0"/>
<feBlend mode="normal" in2="BackgroundImageFix" result="effect1_dropShadow_1_809"/>
<feBlend mode="normal" in="SourceGraphic" in2="effect1_dropShadow_1_809" result="shape"/>
</filter>
<filter id="filter18_d_1_809" x="227.012" y="490.969" width="27.031" height="27.031" filterUnits="userSpaceOnUse" color-interpolation-filters="sRGB">
<feFlood flood-opacity="0" result="BackgroundImageFix"/>
<feColorMatrix in="SourceAlpha" type="matrix" values="0 0 0 0 0 0 0 0 0 0 0 0 0 0 0 0 0 0 127 0" result="hardAlpha"/>
<feOffset dx="6" dy="6"/>
<feComposite in2="hardAlpha" operator="out"/>
<feColorMatrix type="matrix" values="0 0 0 0 0.0980392 0 0 0 0 0.0980392 0 0 0 0 0.0980392 0 0 0 1 0"/>
<feBlend mode="normal" in2="BackgroundImageFix" result="effect1_dropShadow_1_809"/>
<feBlend mode="normal" in="SourceGraphic" in2="effect1_dropShadow_1_809" result="shape"/>
</filter>
<filter id="filter19_d_1_809" x="308.277" y="490.408" width="25.2788" height="25.2788" filterUnits="userSpaceOnUse" color-interpolation-filters="sRGB">
<feFlood flood-opacity="0" result="BackgroundImageFix"/>
<feColorMatrix in="SourceAlpha" type="matrix" values="0 0 0 0 0 0 0 0 0 0 0 0 0 0 0 0 0 0 127 0" result="hardAlpha"/>
<feOffset dx="6" dy="6"/>
<feComposite in2="hardAlpha" operator="out"/>
<feColorMatrix type="matrix" values="0 0 0 0 0.0980392 0 0 0 0 0.0980392 0 0 0 0 0.0980392 0 0 0 1 0"/>
<feBlend mode="normal" in2="BackgroundImageFix" result="effect1_dropShadow_1_809"/>
<feBlend mode="normal" in="SourceGraphic" in2="effect1_dropShadow_1_809" result="shape"/>
</filter>
<filter id="filter20_d_1_809" x="386.249" y="465.738" width="23.5967" height="23.5967" filterUnits="userSpaceOnUse" color-interpolation-filters="sRGB">
<feFlood flood-opacity="0" result="BackgroundImageFix"/>
<feColorMatrix in="SourceAlpha" type="matrix" values="0 0 0 0 0 0 0 0 0 0 0 0 0 0 0 0 0 0 127 0" result="hardAlpha"/>
<feOffset dx="6" dy="6"/>
<feComposite in2="hardAlpha" operator="out"/>
<feColorMatrix type="matrix" values="0 0 0 0 0.0980392 0 0 0 0 0.0980392 0 0 0 0 0.0980392 0 0 0 1 0"/>
<feBlend mode="normal" in2="BackgroundImageFix" result="effect1_dropShadow_1_809"/>
<feBlend mode="normal" in="SourceGraphic" in2="effect1_dropShadow_1_809" result="shape"/>
</filter>
<filter id="filter21_d_1_809" x="455.144" y="417.098" width="21.8447" height="21.8446" filterUnits="userSpaceOnUse" color-interpolation-filters="sRGB">
<feFlood flood-opacity="0" result="BackgroundImageFix"/>
<feColorMatrix in="SourceAlpha" type="matrix" values="0 0 0 0 0 0 0 0 0 0 0 0 0 0 0 0 0 0 127 0" result="hardAlpha"/>
<feOffset dx="6" dy="6"/>
<feComposite in2="hardAlpha" operator="out"/>
<feColorMatrix type="matrix" values="0 0 0 0 0.0980392 0 0 0 0 0.0980392 0 0 0 0 0.0980392 0 0 0 1 0"/>
<feBlend mode="normal" in2="BackgroundImageFix" result="effect1_dropShadow_1_809"/>
<feBlend mode="normal" in="SourceGraphic" in2="effect1_dropShadow_1_809" result="shape"/>
</filter>
</defs>
</svg>
